HIERARCHY
ROOT Root
{
  OFFSET 0.0 0.0 0.0
  CHANNELS 6 Xposition Yposition Zposition Zrotation Yrotation Xrotation
  JOINT Hips
  {
    OFFSET 0.0 100.0 0.0
    CHANNELS 6 Xposition Yposition Zposition Zrotation Yrotation Xrotation
    JOINT Spine1
    {
      OFFSET -0.013727 5.003763 -0.053727
      CHANNELS 3 Zrotation Yrotation Xrotation
      JOINT Spine2
      {
        OFFSET -0.0 7.125301 -0.029825
        CHANNELS 3 Zrotation Yrotation Xrotation
        JOINT Chest
        {
          OFFSET -1e-06 7.550063 -0.815971
          CHANNELS 3 Zrotation Yrotation Xrotation
          JOINT Neck1
          {
            OFFSET -0.181677 26.311295 -0.553348
            CHANNELS 3 Zrotation Yrotation Xrotation
            JOINT Neck2
            {
              OFFSET -3e-06 7.709397 2.302585
              CHANNELS 3 Zrotation Yrotation Xrotation
              JOINT Head
              {
                OFFSET -5e-06 6.128916 1.953709
                CHANNELS 3 Zrotation Yrotation Xrotation
                JOINT HeadEnd
                {
                  OFFSET 0.003598 16.065403 -1.835379
                  CHANNELS 3 Zrotation Yrotation Xrotation
                }
                JOINT Jaw
                {
                  OFFSET 0.002637 0.475592 3.094941
                  CHANNELS 3 Zrotation Yrotation Xrotation
                }
                JOINT LeftEye
                {
                  OFFSET 3.206381 5.380205 7.586883
                  CHANNELS 3 Zrotation Yrotation Xrotation
                }
                JOINT RightEye
                {
                  OFFSET -3.22244 5.361869 7.558234
                  CHANNELS 3 Zrotation Yrotation Xrotation
                }
              }
            }
          }
          JOINT LeftShoulder
          {
            OFFSET 1.621652 23.237164 5.113413
            CHANNELS 3 Zrotation Yrotation Xrotation
            JOINT LeftArm
            {
              OFFSET 14.919846 2e-06 -5.502326
              CHANNELS 3 Zrotation Yrotation Xrotation
              JOINT LeftForeArm
              {
                OFFSET 28.739307 0.0 -0.002588
                CHANNELS 3 Zrotation Yrotation Xrotation
                JOINT LeftHand
                {
                  OFFSET 27.093981 -1e-06 0.002609
                  CHANNELS 3 Zrotation Yrotation Xrotation
                  JOINT LeftHandThumb1
                  {
                    OFFSET 2.276482 -1.392045 3.191413
                    CHANNELS 3 Zrotation Yrotation Xrotation
                    JOINT LeftHandThumb2
                    {
                      OFFSET 4.012836 -1.828127 1.641654
                      CHANNELS 3 Zrotation Yrotation Xrotation
                      JOINT LeftHandThumb3
                      {
                        OFFSET 2.798515 0.0 -3e-06
                        CHANNELS 3 Zrotation Yrotation Xrotation
                        JOINT LeftHandThumbEnd
                        {
                          OFFSET 3.180793 -4e-06 4e-06
                          CHANNELS 3 Zrotation Yrotation Xrotation
                        }
                      }
                    }
                  }
                  JOINT LeftHandIndex1
                  {
                    OFFSET 3.247555 -0.531998 2.296169
                    CHANNELS 3 Zrotation Yrotation Xrotation
                    JOINT LeftHandIndex2
                    {
                      OFFSET 6.364578 0.01206 0.1786
                      CHANNELS 3 Zrotation Yrotation Xrotation
                      JOINT LeftHandIndex3
                      {
                        OFFSET 3.662364 0.0 0.0
                        CHANNELS 3 Zrotation Yrotation Xrotation
                        JOINT LeftHandIndex4
                        {
                          OFFSET 2.329242 4e-06 4e-06
                          CHANNELS 3 Zrotation Yrotation Xrotation
                          JOINT LeftHandIndexEnd
                          {
                            OFFSET 2.759615 -0.180537 -0.113024
                            CHANNELS 3 Zrotation Yrotation Xrotation
                          }
                        }
                      }
                    }
                  }
                  JOINT LeftHandMiddle1
                  {
                    OFFSET 3.163495 0.240981 1.000332
                    CHANNELS 3 Zrotation Yrotation Xrotation
                    JOINT LeftHandMiddle2
                    {
                      OFFSET 6.19078 -0.259278 -1.002548
                      CHANNELS 3 Zrotation Yrotation Xrotation
                      JOINT LeftHandMiddle3
                      {
                        OFFSET 4.35652 -4e-06 -1e-06
                        CHANNELS 3 Zrotation Yrotation Xrotation
                        JOINT LeftHandMiddle4
                        {
                          OFFSET 2.996877 -8e-06 0.0
                          CHANNELS 3 Zrotation Yrotation Xrotation
                          JOINT LeftHandMiddleEnd
                          {
                            OFFSET 2.304287 -0.294569 -0.031741
                            CHANNELS 3 Zrotation Yrotation Xrotation
                          }
                        }
                      }
                    }
                  }
                  JOINT LeftHandRing1
                  {
                    OFFSET 2.882643 -0.053652 -0.322543
                    CHANNELS 3 Zrotation Yrotation Xrotation
                    JOINT LeftHandRing2
                    {
                      OFFSET 5.854541 -0.486202 -1.373841
                      CHANNELS 3 Zrotation Yrotation Xrotation
                      JOINT LeftHandRing3
                      {
                        OFFSET 4.350578 0.0 3e-06
                        CHANNELS 3 Zrotation Yrotation Xrotation
                        JOINT LeftHandRing4
                        {
                          OFFSET 2.651321 7e-06 2e-06
                          CHANNELS 3 Zrotation Yrotation Xrotation
                          JOINT LeftHandRingEnd
                          {
                            OFFSET 1.936105 0.077687 -7.1e-05
                            CHANNELS 3 Zrotation Yrotation Xrotation
                          }
                        }
                      }
                    }
                  }
                  JOINT LeftHandPinky1
                  {
                    OFFSET 2.8655 -0.310005 -1.600378
                    CHANNELS 3 Zrotation Yrotation Xrotation
                    JOINT LeftHandPinky2
                    {
                      OFFSET 5.087849 -1.331141 -1.77123
                      CHANNELS 3 Zrotation Yrotation Xrotation
                      JOINT LeftHandPinky3
                      {
                        OFFSET 3.070974 4e-06 0.0
                        CHANNELS 3 Zrotation Yrotation Xrotation
                        JOINT LeftHandPinky4
                        {
                          OFFSET 1.549672 0.0 1e-06
                          CHANNELS 3 Zrotation Yrotation Xrotation
                          JOINT LeftHandPinkyEnd
                          {
                            OFFSET 1.944893 -0.157802 0.057219
                            CHANNELS 3 Zrotation Yrotation Xrotation
                          }
                        }
                      }
                    }
                  }
                }
              }
            }
          }
          JOINT RightShoulder
          {
            OFFSET -1.380118 23.180309 5.214158
            CHANNELS 3 Zrotation Yrotation Xrotation
            JOINT RightArm
            {
              OFFSET -15.037196 1.2e-05 -5.545604
              CHANNELS 3 Zrotation Yrotation Xrotation
              JOINT RightForeArm
              {
                OFFSET -28.736639 2e-06 -0.002597
                CHANNELS 3 Zrotation Yrotation Xrotation
                JOINT RightHand
                {
                  OFFSET -27.133619 -0.0 0.002613
                  CHANNELS 3 Zrotation Yrotation Xrotation
                  JOINT RightHandThumb1
                  {
                    OFFSET -2.274032 -1.383988 3.163127
                    CHANNELS 3 Zrotation Yrotation Xrotation
                    JOINT RightHandThumb2
                    {
                      OFFSET -4.011429 -1.827466 1.640914
                      CHANNELS 3 Zrotation Yrotation Xrotation
                      JOINT RightHandThumb3
                      {
                        OFFSET -2.794935 -4e-06 -3e-06
                        CHANNELS 3 Zrotation Yrotation Xrotation
                        JOINT RightHandThumbEnd
                        {
                          OFFSET -3.183852 4e-06 1e-06
                          CHANNELS 3 Zrotation Yrotation Xrotation
                        }
                      }
                    }
                  }
                  JOINT RightHandIndex1
                  {
                    OFFSET -3.253266 -0.520057 2.282866
                    CHANNELS 3 Zrotation Yrotation Xrotation
                    JOINT RightHandIndex2
                    {
                      OFFSET -6.341917 0.012471 0.178266
                      CHANNELS 3 Zrotation Yrotation Xrotation
                      JOINT RightHandIndex3
                      {
                        OFFSET -3.654871 -8e-06 -0.0
                        CHANNELS 3 Zrotation Yrotation Xrotation
                        JOINT RightHandIndex4
                        {
                          OFFSET -2.327586 0.0 1e-06
                          CHANNELS 3 Zrotation Yrotation Xrotation
                          JOINT RightHandIndexEnd
                          {
                            OFFSET -2.76179 -0.180656 -0.113078
                            CHANNELS 3 Zrotation Yrotation Xrotation
                          }
                        }
                      }
                    }
                  }
                  JOINT RightHandMiddle1
                  {
                    OFFSET -3.168106 0.246593 1.00103
                    CHANNELS 3 Zrotation Yrotation Xrotation
                    JOINT RightHandMiddle2
                    {
                      OFFSET -6.180828 -0.258836 -1.000895
                      CHANNELS 3 Zrotation Yrotation Xrotation
                      JOINT RightHandMiddle3
                      {
                        OFFSET -4.348901 0.0 -0.0
                        CHANNELS 3 Zrotation Yrotation Xrotation
                        JOINT RightHandMiddle4
                        {
                          OFFSET -3.00024 -4e-06 -2e-06
                          CHANNELS 3 Zrotation Yrotation Xrotation
                          JOINT RightHandMiddleEnd
                          {
                            OFFSET -2.30252 -0.29437 -0.031706
                            CHANNELS 3 Zrotation Yrotation Xrotation
                          }
                        }
                      }
                    }
                  }
                  JOINT RightHandRing1
                  {
                    OFFSET -2.88569 -0.067952 -0.308858
                    CHANNELS 3 Zrotation Yrotation Xrotation
                    JOINT RightHandRing2
                    {
                      OFFSET -5.854198 -0.48613 -1.373731
                      CHANNELS 3 Zrotation Yrotation Xrotation
                      JOINT RightHandRing3
                      {
                        OFFSET -4.33881 -4e-06 -0.0
                        CHANNELS 3 Zrotation Yrotation Xrotation
                        JOINT RightHandRing4
                        {
                          OFFSET -2.654903 -4e-06 4e-06
                          CHANNELS 3 Zrotation Yrotation Xrotation
                          JOINT RightHandRingEnd
                          {
                            OFFSET -1.933568 0.077527 -5.2e-05
                            CHANNELS 3 Zrotation Yrotation Xrotation
                          }
                        }
                      }
                    }
                  }
                  JOINT RightHandPinky1
                  {
                    OFFSET -2.866425 -0.342796 -1.584145
                    CHANNELS 3 Zrotation Yrotation Xrotation
                    JOINT RightHandPinky2
                    {
                      OFFSET -5.091371 -1.332055 -1.772385
                      CHANNELS 3 Zrotation Yrotation Xrotation
                      JOINT RightHandPinky3
                      {
                        OFFSET -3.062664 -4e-06 1e-06
                        CHANNELS 3 Zrotation Yrotation Xrotation
                        JOINT RightHandPinky4
                        {
                          OFFSET -1.546529 4e-06 -2e-06
                          CHANNELS 3 Zrotation Yrotation Xrotation
                          JOINT RightHandPinkyEnd
                          {
                            OFFSET -1.945119 -0.157718 0.057211
                            CHANNELS 3 Zrotation Yrotation Xrotation
                          }
                        }
                      }
                    }
                  }
                }
              }
            }
          }
        }
      }
    }
    JOINT LeftLeg
    {
      OFFSET 10.043214 -8.434526 2.595655
      CHANNELS 3 Zrotation Yrotation Xrotation
      JOINT LeftShin
      {
        OFFSET -1e-06 -43.221752 -0.802913
        CHANNELS 3 Zrotation Yrotation Xrotation
        JOINT LeftFoot
        {
          OFFSET 1e-06 -42.155094 -3.481523
          CHANNELS 3 Zrotation Yrotation Xrotation
          JOINT LeftToeBase
          {
            OFFSET 0.0 -5.059472 13.231529
            CHANNELS 3 Zrotation Yrotation Xrotation
            JOINT LeftToeEnd
            {
              OFFSET -0.009607 -1.647619 6.513017
              CHANNELS 3 Zrotation Yrotation Xrotation
            }
          }
        }
      }
    }
    JOINT RightLeg
    {
      OFFSET -10.047278 -8.29526 2.620317
      CHANNELS 3 Zrotation Yrotation Xrotation
      JOINT RightShin
      {
        OFFSET 1e-06 -43.362206 -0.805556
        CHANNELS 3 Zrotation Yrotation Xrotation
        JOINT RightFoot
        {
          OFFSET 2e-06 -42.117393 -3.478398
          CHANNELS 3 Zrotation Yrotation Xrotation
          JOINT RightToeBase
          {
            OFFSET -0.0 -5.079609 13.284196
            CHANNELS 3 Zrotation Yrotation Xrotation
            JOINT RightToeEnd
            {
              OFFSET 0.009532 -1.634378 6.460591
              CHANNELS 3 Zrotation Yrotation Xrotation
            }
          }
        }
      }
    }
  }
}
MOTION
Frames: 4
Frame Time: 0.03333333333333333
2.010148 0.0 -33.903374 0.0 -1.059291 0.0 0.0 56.875195 0.0 0.680707 0.201662 -23.778503 -0.191317 -0.340002 16.186424 0.163237 0.189923 2.030135 0.272962 -1.820134 23.682995 -5.821225 6.068357 13.918647 0.827904 4.402644 -3.394323 2.081343 3.677775 -9.233235 0.000215 -0.00311 -0.006527 -0.051806 0.134501 -0.114236 0.675088 -3.553607 -10.52234 -0.783557 3.812969 -10.56335 -7.748602 -6.129476 13.793629 -61.772648 -16.199276 15.04202 -177.858337 -86.505478 178.737717 17.98189 -11.296147 60.474625 -5.900559 9.795815 0.810711 -10.929846 -0.354253 7.163898 0.008259 8.780976 -0.002191 -15.875933 17.861141 5.938804 -1.849084 2.507633 -2.504391 -10.190314 4.689205 4.608872 -21.011595 0.010114 0.009586 -21.284222 2.466637 -3.608464 -7.5e-05 -0.003004 -0.000578 -1.372556 2.255664 -0.751761 -21.370184 0.591635 3.006712 -13.831717 0.001514 0.00359 -23.93342 -0.244797 -0.84317 -59.600121 2.476891 -0.934559 -0.303595 1.703122 0.827827 -14.235005 0.080672 1.30617 -34.286823 -0.283598 0.968071 -20.07873 0.982759 1.21458 -0.004453 -0.002334 -0.003422 -3.484456 0.817116 0.482232 -15.926189 -3.171336 3.008436 -6.353506 0.003815 -0.003623 -18.142406 3.649727 -4.91326 -0.009352 -0.001922 0.002382 11.322316 12.658545 19.129217 54.758682 19.535727 14.293001 176.617889 85.373947 176.54335 -23.865879 9.613941 66.958496 2.218288 -5.203128 -3.218923 14.264122 -0.814767 6.939846 -0.002716 -12.697237 -0.009157 16.424561 -17.674845 2.671082 1.669161 -1.955316 -2.872324 4.724862 -4.169754 4.99383 11.032143 0.000134 -0.007611 12.096187 -3.727895 -2.870595 0.0 -0.0 -0.0 1.293698 -1.931919 -1.491778 14.811452 0.566118 3.866593 14.264011 -1.342688 -6.671209 19.651611 0.151634 -0.645427 49.903851 -1.030349 -6.409176 0.352148 -1.516031 -0.031838 20.216265 3.684692 2.326162 18.79553 0.018764 -0.003372 10.732944 -0.46422 1.410155 -6.1e-05 -0.003062 -0.003957 3.276449 0.29639 -0.591129 21.504894 11.822208 2.29388 8.160638 0.0144 -0.008336 18.373343 -3.784643 -4.931516 6.7e-05 0.008688 -0.000902 0.044911 14.609323 -64.434074 0.129203 0.064801 98.387726 2.944912 -13.410882 -9.209705 1.625607 -1.935175 -1.332974 0.000894 -0.000155 0.001556 -8.079396 -14.804893 -64.385178 0.271778 0.254259 93.612877 20.432087 25.354229 5.899373 -1.496888 0.908609 -5.366831 0.000577 0.000273 -0.001285 
1.907117 0.0 -33.906212 0.0 -1.039492 0.0 0.0 56.845589 0.0 0.678814 0.204205 -24.064919 -0.178182 -0.321864 16.00436 0.157664 0.190441 1.940471 0.303982 -1.845071 23.504738 -5.592494 5.95204 13.741919 0.804864 4.279107 -3.400695 2.146648 3.53718 -9.126137 -0.001078 0.00322 -1e-06 -0.047125 0.123769 -0.101211 0.690856 -3.566328 -10.537461 -0.79401 3.798351 -10.563219 -7.851326 -6.055266 13.772349 -61.62994 -16.308725 15.12473 -179.512268 -87.26548 -179.60231 17.961727 -11.147617 59.918716 -5.85974 9.883703 0.644561 -10.95376 -0.388197 7.119678 -0.008823 8.761682 -0.003624 -15.833985 17.822613 5.959007 -1.839203 2.495615 -2.504834 -10.152954 4.670247 4.626404 -20.963923 -0.003932 -0.008217 -21.191277 2.440007 -3.592009 -0.00055 0.003279 0.002348 -1.356732 2.232864 -0.740813 -21.303652 0.597311 3.01418 -13.786607 0.000915 0.00094 -23.819948 -0.250459 -0.832374 -59.402634 2.527277 -0.9122 -0.283548 1.667046 0.841135 -14.198695 0.093378 1.306443 -34.170155 -0.272233 0.966824 -20.002357 0.968314 1.217981 0.007895 0.000161 -0.00337 -3.414762 0.765236 0.515238 -15.929682 -3.151729 2.993351 -6.327353 0.002754 0.003184 -18.081318 3.644514 -4.895748 -0.011701 0.002413 -0.004763 11.559159 12.552644 18.952261 54.428684 19.702827 14.478341 175.835236 86.053894 175.833694 -24.010111 9.125128 67.007187 2.235594 -5.250359 -3.140255 14.295267 -0.803855 6.96992 0.007443 -12.690339 0.002147 16.514893 -17.679117 2.686638 1.666062 -1.945753 -2.883795 4.726203 -4.18075 4.998821 11.020161 -0.000533 0.000861 12.145533 -3.743059 -2.872201 -0.007835 0.001552 -0.000865 1.293607 -1.916559 -1.497747 14.796075 0.55468 3.85994 14.253639 -1.338506 -6.66843 19.627159 0.132697 -0.649257 49.940178 -1.039264 -6.45424 0.356271 -1.502217 -0.038336 20.223528 3.66392 2.316645 18.815186 -0.00413 -0.003078 10.747152 -0.475726 1.397457 0.018243 0.003552 -0.000365 3.284235 0.320214 -0.59235 21.479942 11.806142 2.269661 8.18381 -0.005277 -0.001831 18.390289 -3.810219 -4.930531 0.017801 -0.000886 -0.008058 0.21861 14.693252 -64.114197 0.128002 0.073592 98.37056 2.878578 -13.585797 -9.266303 1.627165 -1.932252 -1.367839 -0.00059 0.000635 0.000842 -8.039503 -14.84091 -64.130867 0.279322 0.255258 93.70047 20.379284 25.3395 5.827992 -1.542575 0.903264 -5.426496 0.000627 -0.001742 0.004666 
1.826564 0.0 -33.874966 0.0 -1.017752 0.0 0.0 56.801224 0.0 0.694812 0.215688 -24.455173 -0.207849 -0.356383 15.811591 0.167527 0.233409 1.874249 0.31217 -1.858528 23.352474 -5.408269 5.871192 13.736384 0.806075 4.110987 -3.398944 2.187882 3.439944 -9.08656 -0.00067 -0.000963 0.006689 -0.046502 0.113376 -0.094177 0.704747 -3.58365 -10.542313 -0.800346 3.784075 -10.573347 -7.97293 -6.377057 13.815734 -61.684677 -16.526581 15.330163 178.491745 -88.061943 -177.614944 17.991095 -11.122301 59.503586 -5.918457 9.887592 0.784197 -10.941002 -0.353787 7.176592 -0.00566 8.771545 0.004292 -15.871439 17.854465 5.993751 -1.847978 2.49586 -2.511622 -10.179256 4.680285 4.623243 -21.023983 0.00881 0.005048 -21.265224 2.470205 -3.590828 8.2e-05 0.000226 -0.000675 -1.373669 2.223515 -0.746215 -21.337286 0.609116 3.004013 -13.831809 0.007421 0.006518 -23.928362 -0.249936 -0.834952 -59.56897 2.531347 -0.961564 -0.307854 1.66355 0.834994 -14.222812 0.109381 1.294316 -34.242863 -0.26999 0.965459 -20.049191 0.975551 1.213188 0.000655 -0.006405 0.003523 -3.476623 0.793286 0.499353 -15.918545 -3.170345 2.995334 -6.345697 0.007085 -0.001235 -18.16799 3.643974 -4.910303 0.000101 -0.001554 -0.002245 11.579451 12.750655 19.66713 54.319965 19.979214 14.782749 176.407104 86.734756 176.513275 -24.096643 8.600837 66.848175 2.250276 -5.300588 -3.138334 14.300149 -0.809254 6.980634 -0.003357 -12.674929 0.009317 16.539629 -17.692507 2.690568 1.665073 -1.951522 -2.875147 4.728043 -4.165279 4.992704 11.020585 -0.005293 -6.9e-05 12.106248 -3.728677 -2.857643 -0.003901 -0.002191 0.002552 1.294247 -1.908249 -1.491216 14.804078 0.546177 3.857342 14.242702 -1.352649 -6.656452 19.622908 0.136504 -0.638304 49.938812 -1.093624 -6.494368 0.357582 -1.494401 -0.026869 20.214672 3.663436 2.306148 18.776669 -0.016778 0.007942 10.76745 -0.483359 1.398458 -0.010037 9.8e-05 0.003391 3.284139 0.324402 -0.574456 21.463112 11.804697 2.245216 8.181428 -0.003815 -0.005612 18.39575 -3.809601 -4.936431 0.009736 0.004651 -0.004425 0.368761 14.724985 -63.696659 0.153582 0.051458 98.474434 2.783636 -13.741359 -9.233408 1.631051 -1.920597 -1.347952 -0.000659 0.001155 0.007985 -8.105416 -14.911599 -63.724922 0.291661 0.254889 93.800247 20.237877 25.328598 5.696104 -1.544303 0.866241 -5.424593 -0.002577 0.000622 0.005149 
1.758918 0.0 -33.858265 0.0 -1.002109 0.0 0.0 56.736435 0.0 0.699305 0.221978 -24.910721 -0.204446 -0.340005 15.615812 0.146467 0.196453 1.793115 0.284329 -1.845117 23.280188 -5.215426 5.811785 13.691284 0.75472 3.978709 -3.370731 2.275342 3.253385 -8.97913 -2.5e-05 -0.004499 -0.00255 -0.045604 0.107421 -0.103221 0.707864 -3.576548 -10.555264 -0.805276 3.788034 -10.588213 -8.197219 -6.221763 13.786883 -61.362774 -16.605515 15.123112 178.443832 -88.726509 -177.644348 17.918751 -11.073956 58.913429 -5.874344 9.845531 0.673719 -10.967754 -0.392805 7.11519 0.012654 8.767623 -0.004556 -15.777738 17.801727 5.937463 -1.842114 2.498585 -2.507481 -10.162242 4.668687 4.623408 -20.950945 -0.004131 0.004995 -21.160561 2.447438 -3.570946 0.000406 0.00035 -0.001712 -1.360461 2.226594 -0.745686 -21.328081 0.596765 3.011735 -13.817791 -0.003083 0.006442 -23.867933 -0.254565 -0.840524 -59.438492 2.49346 -0.908034 -0.288049 1.670947 0.834687 -14.21238 0.101351 1.306985 -34.156952 -0.278478 0.973837 -20.021109 0.95895 1.229062 0.000958 3e-05 0.004168 -3.427865 0.769074 0.502276 -15.937784 -3.147412 3.012449 -6.331465 -0.008237 0.000235 -18.0723 3.651112 -4.893682 -0.000599 0.001423 -0.000488 11.8312 12.612505 19.259418 54.045101 20.154369 14.95546 175.45369 87.389931 175.635864 -24.247375 8.138705 66.851906 2.262877 -5.229485 -3.115884 14.330958 -0.796097 6.932292 -0.000451 -12.683508 -0.007899 16.53763 -17.740192 2.657702 1.661782 -1.963797 -2.875365 4.71862 -4.158831 4.991778 11.001341 -0.003489 0.004143 12.078295 -3.72413 -2.863844 0.015396 -0.005128 0.00012 1.283306 -1.926341 -1.50226 14.774884 0.554224 3.879341 14.223529 -1.340895 -6.657342 19.603477 0.128112 -0.639165 49.848328 -1.095622 -6.494039 0.343269 -1.511225 -0.03775 20.19245 3.657922 2.336456 18.744432 -0.005536 0.015018 10.747394 -0.479955 1.394454 -0.00051 0.008668 0.007173 3.243192 0.312195 -0.583132 21.491602 11.801933 2.284673 8.150123 -0.011105 0.007127 18.344242 -3.813944 -4.896328 -0.007874 -0.005815 -0.000288 0.523758 14.77547 -63.218826 0.140008 0.053973 98.554192 2.799011 -13.851422 -9.37449 1.633763 -1.939046 -1.332677 0.001067 0.000938 -0.002425 -8.216571 -14.945081 -63.225956 0.275904 0.268286 93.907402 20.136894 25.313158 5.642798 -1.5408 0.867383 -5.422127 -0.003262 0.000146 0.00173 
